<svg version="1" xmlns="http://www.w3.org/2000/svg" width="517.333" height="517.333" viewBox="0 0 388.000000 388.000000"><path d="M109.1 7.4c-4.1 4.1-5.1 5.8-5.1 8.5 0 3.6-.3 3.6-7.5 1.6-1.5-.5-3.4.7-7.3 4.6-4.3 4.2-5.2 5.7-5.2 8.6 0 2.8-.3 3.3-1.7 2.9-7.5-2.1-8-1.9-13.3 3.1-4.2 4.1-5 5.3-5 8.5v3.7l-4.7-1.4-4.8-1.5-5.2 5.2-5.3 5.2v26.8l-2.7-.7c-1.6-.3-3.7-.8-4.8-1.1-1.4-.3-3.5 1-7.2 4.6L24 91.1v179.8l5.2 1.5c2.9.9 7.4 2 10 2.7l4.7 1.1.3 10.1.3 10.2 9.5 2.6 9.5 2.5.3 10.1.3 10 17.7 4.7c9.7 2.6 18.6 5 19.6 5.5 1.6.6 3.1-.3 7.3-4.6 4.4-4.3 5.3-5.9 5.3-8.8 0-1.9.1-3.5.3-3.5.1 0 2.3.7 4.8 1.4l4.6 1.4 5.2-5.2c4-4.1 5.1-5.9 5.1-8.4 0-3.5.5-3.7 6.1-2.1l3.8 1.2.3 10 .3 10.1 9.8 2.5 9.7 2.6v20l18.3 4.9c10 2.7 18.9 5.1 19.8 5.3 1 .3 3.6-1.6 6.8-4.8 4.1-4.2 5.1-5.8 5.1-8.6 0-3.1.2-3.3 2.8-2.7 1.5.4 3.6 1 4.8 1.5 3.1 1.1 12.1-8.3 12.6-13.2l.3-3.5 4.8 1.4 4.7 1.3v19.8l5.3 1.5c2.8.8 7.3 2 9.9 2.6l4.7 1.2.3 10.1.3 10.2 19.5 5.2 19.5 5.2 5.3-5.2c4.2-4.1 5.2-5.8 5.2-8.4 0-3.8-.3-3.7 5.5-2.2l4.3 1.1 5.1-5.1c4.1-4.1 5.1-5.8 5.1-8.5v-3.4l4.9 1.3 4.9 1.3 5.1-5.2 5.1-5.2v-180l-9.7-2.5-9.8-2.5-.3-20.2-.2-20.1-4.3-1.2c-2.3-.6-6.8-1.8-9.9-2.6l-5.7-1.6-.3-10-.3-10.1-9.5-2.5-9.5-2.6-.3-10.2-.3-10.1-4.7-1.2c-2.6-.6-7.1-1.8-9.9-2.6l-5.3-1.5V45.1l-5.2-1.5c-2.9-.8-9.8-2.6-15.3-4.1-18.4-4.8-137-36.6-138.1-37-.6-.2-3.4 2-6.3 4.9z"/></svg>